<?xml version="1.0" encoding="UTF-8"?>
<svg xmlns="http://www.w3.org/2000/svg" id="Layer_1" data-name="Layer 1" viewBox="0 0 24 24">
  <path d="m10.234,7.427l3.145-2.149c.116-.097.254-.203.414-.311-.466-.709-.738-1.557-.738-2.467,0-.135.006-.268.018-.4l-1.843-1.332c-.028-.02-.056-.038-.085-.055-1.877-1.084-4.193-.921-5.901.415L1.918,3.729c-1.219.955-1.918,2.39-1.918,3.938v5.338c0,2.206,1.794,4,4,4h7c.037,0,.074-.002.111-.006-.019,0-.038.001-.056.001-1.654,0-3-1.346-3-3v-2.444c0-1.653.815-3.197,2.18-4.129Zm-4.234,4.573c0,.552-.448,1-1,1h-1c-.552,0-1-.448-1-1v-1c0-.552.448-1,1-1h1c.552,0,1,.448,1,1v1ZM15.054,2.5c0-1.381,1.119-2.5,2.5-2.5s2.5,1.119,2.5,2.5-1.119,2.5-2.5,2.5-2.5-1.119-2.5-2.5Zm1.066,16.879l-1.641,4c-.159.387-.532.621-.926.621-.126,0-.255-.024-.379-.075-.511-.209-.755-.794-.546-1.305l1.641-4c.21-.511.794-.754,1.305-.546.511.209.755.794.546,1.305Zm7.426-6.717l-2.438-1.589c-.203-.132-.352-.334-.417-.568l-.683-2.439c-.359-1.149-1.615-2.049-2.859-2.049-1.442,0-2.247.574-2.547.847l-3.241,2.215c-.819.559-1.308,1.485-1.308,2.477v2.444c0,.552.448,1,1,1s1-.448,1-1v-2.444c0-.331.163-.639.436-.826l1.564-1.069v3.798c0,.978.478,1.896,1.302,2.473l4.25,2.81c.281.186.449.498.449.834v3.425c0,.552.448,1,1,1s1-.448,1-1v-3.425c0-1.01-.503-1.945-1.346-2.502l-1.708-1.129v-4.312c.237.45.585.836,1.017,1.118l2.437,1.589c.465.303,1.083.171,1.384-.292.301-.463.171-1.083-.292-1.384Z"/>
</svg>
